<?xml version="1.0" encoding="UTF-8"?>
<svg width="142px" height="23px" viewBox="0 0 142 23" version="1.1" xmlns="http://www.w3.org/2000/svg" xmlns:xlink="http://www.w3.org/1999/xlink">
    <!-- Generator: Sketch 59.1 (86144) - https://sketch.com -->
    <title>Group 2</title>
    <desc>Created with Sketch.</desc>
    <g id="Page-1" stroke="none" stroke-width="1" fill="none" fill-rule="evenodd">
        <g id="Group-2" fill-rule="nonzero">
            <path fill="#0064C3" d="M9.35798881,17.6882353 C13.1705028,17.6882353 16.0377653,14.9088235 16.0377653,9.84411765 C16.0377653,4.81029412 13.1705028,2.03088235 9.35798881,2.03088235 C7.62502792,2.03088235 6.04960893,2.71029412 4.85229049,4.13088235 L4.85229049,2.40147059 L0,2.40147059 L0,23 L4.85229049,23 L4.85229049,15.5573529 C6.11262568,17.0397059 7.6565363,17.6882353 9.35798881,17.6882353 Z M7.75106144,6.23088235 C9.64156422,6.23088235 11.0909497,7.62058824 11.0909497,9.84411765 C11.0909497,12.0985294 9.64156422,13.4882353 7.75106144,13.4882353 C6.7112849,13.4882353 5.45094971,12.9014706 4.85229049,12.1294118 L4.85229049,7.58970588 C5.45094971,6.78676471 6.7112849,6.23088235 7.75106144,6.23088235 Z M54.2806704,17.3176471 L58.7863687,2.40147059 L53.7765363,2.40147059 L51.350391,11.5426471 L48.357095,2.40147059 L44.0404469,2.40147059 L41.0471508,11.5426471 L38.5894972,2.40147059 L33.6111732,2.40147059 L38.1168715,17.3176471 L43.3472626,17.3176471 L46.1830167,8.08382353 L49.0502793,17.3176471 L54.2806704,17.3176471 Z M66.6004469,17.6882353 C68.932067,17.6882353 71.4527374,17.0397059 72.9651396,15.7117647 L70.917095,12.7470588 C70.0663687,13.55 68.2073743,14.0132353 67.1360894,14.0132353 C64.9305028,14.0132353 63.6071508,12.7470588 63.3235754,11.3573529 L74.1624581,11.3573529 L74.1624581,10.3382353 C74.1624581,5.27352941 70.8855866,2.03088235 66.3798883,2.03088235 C61.6221229,2.03088235 58.2822346,5.52058824 58.2822346,9.84411765 C58.2822346,14.6926471 61.9056983,17.6882353 66.6004469,17.6882353 Z M69.5307262,8.26911765 L63.2605587,8.26911765 C63.4496089,7.18823529 64.2688268,5.70588235 66.3798883,5.70588235 C68.6169832,5.70588235 69.4046927,7.21911765 69.5307262,8.26911765 Z M80.3381006,17.3176471 L80.3381006,7.80588235 C80.9682682,6.97205882 82.6382123,6.44705882 83.8985475,6.44705882 C84.4026816,6.44705882 84.8122905,6.50882353 85.0958659,6.57058824 L85.0958659,2 C83.2683799,2 81.3463687,3.01911765 80.3381006,4.22352941 L80.3381006,2.40147059 L75.4858101,2.40147059 L75.4858101,17.3176471 L80.3381006,17.3176471 Z M93.5401118,17.6882353 C96.8169833,17.6882353 98.8650279,16.2367647 99.778771,14.9397059 L96.627933,12.0367647 C96.0292738,12.8705882 95.052514,13.4882353 93.7606704,13.4882353 C91.7441341,13.4882353 90.2002235,12.0985294 90.2002235,9.84411765 C90.2002235,7.58970588 91.7441341,6.23088235 93.7606704,6.23088235 C95.052514,6.23088235 96.0292738,6.78676471 96.627933,7.65147059 L99.778771,4.77941176 C98.8650279,3.45147059 96.8169833,2.03088235 93.5401118,2.03088235 C88.7823464,2.03088235 85.2218995,5.18088235 85.2218995,9.84411765 C85.2218995,14.5382353 88.7823464,17.6882353 93.5401118,17.6882353 Z M108.191508,17.6882353 C113.421899,17.6882353 116.509721,14.0441176 116.509721,9.84411765 C116.509721,5.64411765 113.421899,2.03088235 108.191508,2.03088235 C103.024134,2.03088235 99.9048045,5.64411765 99.9048045,9.84411765 C99.9048045,14.0441176 103.024134,17.6882353 108.191508,17.6882353 Z M108.191508,13.4882353 C106.080447,13.4882353 104.914637,11.8514706 104.914637,9.84411765 C104.914637,7.86764706 106.080447,6.23088235 108.191508,6.23088235 C110.334078,6.23088235 111.531397,7.86764706 111.531397,9.84411765 C111.531397,11.8514706 110.334078,13.4882353 108.191508,13.4882353 Z M142,17.3176471 L137.179218,17.3176471 L137.179218,8.23823529 C137.179218,7.09558824 136.612067,6.23088235 135.162682,6.23088235 C133.83933,6.23088235 132.894078,7.06470588 132.421453,7.68235294 L132.421453,17.3176471 L127.569162,17.3176471 L127.569162,8.23823529 C127.569162,7.09558824 127.03352,6.23088235 125.552626,6.23088235 C124.260782,6.23088235 123.347039,7.06470588 122.842905,7.68235294 L122.842905,17.3176471 L117.990615,17.3176471 L117.990615,2.40147059 L122.842905,2.40147059 L122.842905,4.22352941 C123.504581,3.35882353 125.458101,2.03088235 127.852737,2.03088235 C130.026816,2.03088235 131.539218,2.92647059 132.169385,4.68676471 C133.05162,3.38970588 135.036648,2.03088235 137.431285,2.03088235 C140.235531,2.03088235 142,3.45147059 142,6.50882353 L142,17.3176471 Z" id="powercom"></path>
            <path fill="#FF5050" d="M27.7949178,2.86634305 C28.3492418,2.16981946 29.359549,2.05751212 30.0515021,2.61549759 C31.1156326,3.47360391 31.9487806,4.59323949 32.4699939,5.89180878 C33.7129941,8.98866338 32.9297581,12.4983974 30.5694135,14.7660163 C29.8414405,15.465391 28.985407,16.0232633 28.0346047,16.4099498 C27.0863656,16.7955938 26.0884177,16.9928561 25.0848211,16.999808 C21.8191366,17.0224291 18.8295766,15.044844 17.5854824,11.9452638 C16.2726413,8.67440488 17.2247489,4.95710938 19.8695385,2.72572794 C20.5490364,2.15244271 21.5615681,2.24218346 22.1310915,2.92616954 C22.6852224,3.5916695 22.6158009,4.57452729 21.9857646,5.15521624 L21.852206,5.27145584 C20.3271602,6.61616369 19.7879843,8.8052042 20.5623847,10.7345728 C21.3090274,12.5947848 23.1031004,13.7815587 25.0627274,13.7679846 C25.6632053,13.7638251 26.26047,13.645765 26.8318581,13.4133844 C27.4047846,13.1803781 27.9171059,12.8465011 28.3526715,12.4280467 C29.7690525,11.0673079 30.2390801,8.96108203 29.4930916,7.10249979 C29.1793805,6.32090881 28.6814752,5.6517931 28.0441172,5.13783266 C27.3521641,4.57984719 27.2405937,3.56286665 27.7949178,2.86634305 Z M24.9067559,0 C25.7717396,0 26.476942,0.688623852 26.5108275,1.55095728 L26.5121022,1.61594995 L26.5121022,9.00578662 C26.5121022,9.89825114 25.7933642,10.6217366 24.9067559,10.6217366 C24.0417723,10.6217366 23.3365699,9.93311272 23.3026844,9.07077929 L23.3014097,9.00578662 L23.3014097,1.61594995 C23.3014097,0.723485435 24.0201477,0 24.9067559,0 Z" id="Combined-Shape"></path>
        </g>
    </g>
</svg>